<svg width="324.688" height="76.96" viewBox="-18.38424698696718 -25.2482132327015 372.68824698696716 124.9602132327015" xmlns="http://www.w3.org/2000/svg"><g id="svgGroup" stroke-linecap="round" fill-rule="evenodd" font-size="9pt" stroke="#000" stroke-width="0.25mm" fill="#000" style="stroke:#000;stroke-width:0.25mm;fill:#000"><path d="M 139.672 23.816 L 139.672 31.304 L 138.008 32.344 Q 135.512 30.576 132.704 29.744 A 19.902 19.902 0 0 0 129.15 29.049 A 25.4 25.4 0 0 0 126.464 28.912 Q 121.888 28.912 117.832 30.732 A 13.598 13.598 0 0 0 112.458 35.116 A 17.663 17.663 0 0 0 111.28 36.92 Q 108.784 41.288 108.784 48.984 Q 108.784 53.523 109.666 56.895 A 18.499 18.499 0 0 0 110.396 59.124 A 19.2 19.2 0 0 0 111.941 62.188 Q 113.127 64.071 114.66 65.364 Q 117.312 67.6 120.484 68.536 A 22.711 22.711 0 0 0 124.916 69.394 A 19.944 19.944 0 0 0 126.672 69.472 A 23.314 23.314 0 0 0 130.293 69.204 A 17.477 17.477 0 0 0 133.692 68.328 Q 136.101 67.43 137.837 66.403 A 16.161 16.161 0 0 0 138.736 65.832 L 140.4 66.872 L 140.4 74.36 A 32.124 32.124 0 0 1 134.315 76.263 A 35.265 35.265 0 0 1 134.212 76.284 Q 130.936 76.96 127.296 76.96 A 36.066 36.066 0 0 1 118.987 75.965 A 40.548 40.548 0 0 1 117.78 75.66 Q 112.944 74.36 108.888 71.188 A 21.353 21.353 0 0 1 104.049 65.794 A 27.053 27.053 0 0 1 102.336 62.66 A 24.398 24.398 0 0 1 100.63 57.446 Q 99.84 53.755 99.84 49.192 A 44.402 44.402 0 0 1 100.162 43.693 Q 100.526 40.777 101.304 38.312 A 23.3 23.3 0 0 1 102.128 36.088 A 24.709 24.709 0 0 1 105.013 31.042 A 20.201 20.201 0 0 1 108.316 27.56 Q 112.216 24.336 117.104 22.88 Q 121.992 21.424 127.192 21.424 Q 131.04 21.424 134.056 22.048 A 28.731 28.731 0 0 1 138.515 23.34 A 25.604 25.604 0 0 1 139.672 23.816 Z M 201.968 75.712 L 191.152 75.712 L 192.192 67.392 L 192.192 41.288 Q 192.192 37.097 190.611 34.387 A 8.758 8.758 0 0 0 188.916 32.292 A 10.357 10.357 0 0 0 185.222 30.189 Q 182.668 29.328 179.192 29.328 A 27.779 27.779 0 0 0 175.117 29.612 Q 172.934 29.936 171.082 30.63 A 16.554 16.554 0 0 0 170.56 30.836 A 29.002 29.002 0 0 0 167.614 32.245 Q 166.118 33.073 164.914 34.01 A 17.092 17.092 0 0 0 164.528 34.32 A 46.528 46.528 0 0 0 162.943 35.687 Q 162.216 36.345 161.624 36.949 A 20.213 20.213 0 0 0 160.784 37.856 L 160.784 31.304 L 172.016 22.464 A 44.157 44.157 0 0 1 174.584 21.947 A 32.142 32.142 0 0 1 176.956 21.632 Q 179.192 21.424 181.064 21.424 A 38.326 38.326 0 0 1 185.434 21.658 Q 187.668 21.915 189.526 22.454 A 16.184 16.184 0 0 1 192.868 23.816 Q 197.184 26.208 199.056 30.524 A 22.229 22.229 0 0 1 200.619 36.108 A 29.41 29.41 0 0 1 200.928 40.456 L 200.928 67.392 L 201.968 75.712 Z M 324.688 75.712 L 313.872 75.712 L 314.912 67.392 L 314.912 40.872 A 16.215 16.215 0 0 0 314.597 37.571 Q 314.175 35.542 313.187 34.007 A 8.744 8.744 0 0 0 311.688 32.24 A 10.197 10.197 0 0 0 308.053 30.174 Q 306.502 29.652 304.606 29.452 A 23.733 23.733 0 0 0 302.12 29.328 A 28.677 28.677 0 0 0 298.305 29.568 Q 296.345 29.832 294.674 30.384 A 16.144 16.144 0 0 0 293.592 30.784 Q 290.056 32.24 287.82 34.06 A 55.17 55.17 0 0 0 286.529 35.142 Q 285.227 36.27 284.44 37.128 L 284.44 31.096 L 295.672 22.568 Q 297.752 22.048 299.936 21.736 Q 302.12 21.424 304.408 21.424 A 25.714 25.714 0 0 1 312.388 22.646 A 24.114 24.114 0 0 1 313.768 23.14 A 14.911 14.911 0 0 1 320.63 28.631 A 18.197 18.197 0 0 1 320.892 29.016 Q 323 32.197 323.496 37.264 A 33.884 33.884 0 0 1 323.648 40.56 L 323.648 67.392 L 324.688 75.712 Z M 30.992 44.096 L 36.4 47.944 L 36.4 52.728 Q 33.696 51.272 30.628 50.7 Q 27.56 50.128 23.608 50.128 A 39.958 39.958 0 0 0 19.593 50.316 Q 15.201 50.761 12.532 52.26 A 6.971 6.971 0 0 0 9.227 56.507 Q 8.736 58.123 8.736 60.216 A 12.909 12.909 0 0 0 9.01 62.967 Q 9.383 64.673 10.261 65.939 A 7.035 7.035 0 0 0 11.544 67.34 Q 14.175 69.533 19.819 69.671 A 31.584 31.584 0 0 0 20.592 69.68 A 32.567 32.567 0 0 0 24.538 69.456 Q 26.529 69.212 28.182 68.704 A 14.197 14.197 0 0 0 30.836 67.6 Q 34.632 65.52 36.712 62.608 L 38.792 67.288 L 28.808 75.712 A 45.435 45.435 0 0 1 26.086 76.301 A 54.449 54.449 0 0 1 24.336 76.596 Q 21.944 76.96 19.448 76.96 Q 14.872 76.96 10.4 75.452 Q 5.928 73.944 2.964 70.252 Q 0 66.56 0 60.112 Q 0 55.12 1.872 51.792 Q 3.744 48.464 6.916 46.592 Q 10.088 44.72 14.04 43.94 Q 17.992 43.16 22.152 43.16 A 52.864 52.864 0 0 1 24.845 43.226 A 42.004 42.004 0 0 1 26.78 43.368 Q 28.912 43.576 30.992 44.096 Z M 45.24 75.712 L 37.024 75.712 L 35.464 70.2 L 35.464 41.912 A 25.168 25.168 0 0 0 35.29 38.86 Q 35.102 37.33 34.714 36.028 A 13.243 13.243 0 0 0 34.32 34.892 A 7.641 7.641 0 0 0 31.632 31.513 A 10.897 10.897 0 0 0 29.848 30.472 A 13.013 13.013 0 0 0 27.453 29.649 Q 24.892 29.016 21.205 28.927 A 51.207 51.207 0 0 0 19.968 28.912 A 35.729 35.729 0 0 0 15.6 29.169 A 29.111 29.111 0 0 0 12.844 29.64 A 18.675 18.675 0 0 0 7.215 31.927 A 21.467 21.467 0 0 0 6.552 32.344 L 4.888 31.304 L 4.888 23.816 A 52.172 52.172 0 0 1 9.589 22.548 A 40.09 40.09 0 0 1 13.468 21.892 A 71.474 71.474 0 0 1 17.792 21.514 A 56.107 56.107 0 0 1 20.904 21.424 Q 29.849 21.424 34.881 23.762 A 16.205 16.205 0 0 1 34.996 23.816 A 15.719 15.719 0 0 1 39.074 26.55 A 13.331 13.331 0 0 1 42.12 30.836 A 22.06 22.06 0 0 1 43.611 35.632 Q 44.053 37.878 44.163 40.463 A 41.259 41.259 0 0 1 44.2 42.224 L 44.2 67.392 L 45.24 75.712 Z M 165.152 75.712 L 154.336 75.712 L 155.376 67.392 L 155.376 8.32 L 154.336 0 L 165.152 0 L 164.112 8.32 L 164.112 67.392 L 165.152 75.712 Z M 239.304 76.96 Q 233.064 76.96 227.344 74.256 A 20.431 20.431 0 0 1 219.645 67.852 A 26.105 26.105 0 0 1 218.036 65.416 Q 215.205 60.574 214.608 53.272 A 50.096 50.096 0 0 1 214.448 49.192 A 47.417 47.417 0 0 1 214.766 43.544 Q 215.106 40.712 215.811 38.299 A 24.933 24.933 0 0 1 216.528 36.192 A 26.314 26.314 0 0 1 218.885 31.53 A 20.288 20.288 0 0 1 222.144 27.612 Q 225.68 24.336 230.152 22.88 Q 234.624 21.424 239.304 21.424 Q 243.984 21.424 248.456 22.88 Q 252.928 24.336 256.464 27.612 A 20.767 20.767 0 0 1 260.315 32.499 A 27.246 27.246 0 0 1 262.08 36.192 Q 263.831 40.657 264.108 46.817 A 52.889 52.889 0 0 1 264.16 49.192 A 46.323 46.323 0 0 1 263.736 55.661 Q 263.262 59.017 262.257 61.79 A 22.05 22.05 0 0 1 260.572 65.416 A 24.076 24.076 0 0 1 256.608 70.555 A 19.718 19.718 0 0 1 251.316 74.256 Q 245.648 76.96 239.304 76.96 Z M 288.496 75.712 L 277.68 75.712 L 278.72 67.392 L 278.72 30.784 L 277.68 22.672 L 286 22.672 L 287.456 28.808 L 287.456 67.392 L 288.496 75.712 Z M 69.784 75.712 L 58.968 75.712 L 60.008 67.392 L 60.008 30.992 L 58.968 22.672 L 65.936 22.672 L 67.6 28.808 L 68.744 28.808 L 68.744 67.392 L 69.784 75.712 Z M 239.304 69.472 A 19.193 19.193 0 0 0 244.306 68.855 A 13.792 13.792 0 0 0 250.952 64.896 A 12.816 12.816 0 0 0 253.423 60.843 Q 254.933 57.048 255.171 51.239 A 54.936 54.936 0 0 0 255.216 48.984 Q 255.216 41.392 253.292 37.024 A 15.118 15.118 0 0 0 251.463 33.887 A 11.114 11.114 0 0 0 247.832 30.784 Q 244.296 28.912 239.304 28.912 Q 234.312 28.912 230.776 30.784 A 11.288 11.288 0 0 0 226.752 34.426 A 15.652 15.652 0 0 0 225.316 37.024 Q 223.392 41.392 223.392 48.984 Q 223.392 60.32 227.656 64.896 A 14.064 14.064 0 0 0 235.704 69.168 A 20.388 20.388 0 0 0 239.304 69.472 Z M 66.56 41.496 L 66.56 30.576 L 75.712 22.776 Q 79.456 21.424 83.408 21.424 A 26.121 26.121 0 0 1 86.582 21.623 A 28.974 28.974 0 0 1 87.048 21.684 A 14.448 14.448 0 0 1 89.611 22.292 A 17.583 17.583 0 0 1 90.896 22.776 L 90.896 29.744 L 89.232 30.784 Q 87.464 30.16 85.852 29.952 Q 84.24 29.744 82.888 29.744 A 19.377 19.377 0 0 0 78.526 30.209 A 13.448 13.448 0 0 0 72.904 32.916 A 21.452 21.452 0 0 0 68.717 37.612 A 28.548 28.548 0 0 0 66.56 41.496 Z" vector-effect="non-scaling-stroke"/></g></svg>